# xmcd
#
# Track frame offsets:
#	150
#	10796
#	27299
#	49262
#	64288
#	86436
#	105903
#	120169
#	154961
#	168905
#	173407
#	192080
#	216995
#	241298
#	265268
#	291081
#	304081
#	342343
#
# Disc length: 4628 seconds
# Revision: 2
# Processed by: cddbd v1.5.2PL0 Copyright (c) Steve Scherf et al.
# Submitted via: dBpowerAMP V12.0
#
DISCID=ec121212
DTITLE=Savoy Brown - Raw Sienna - Looking In
DYEAR=1970
DGENRE=Blues
TTITLE0=A Hard Way to Go
TTITLE1=That Same Feelin'
TTITLE2=Master Hare
TTITLE3=Needle and Spoon
TTITLE4=A Little More Wine
TTITLE5=I'm Crying
TTITLE6=Stay While the Night Is Young
TTITLE7=Is That So
TTITLE8=When I Was a Young Boy
TTITLE9=Gypsy
TTITLE10=Poor Girl
TTITLE11=Money Can't Save Your Soul
TTITLE12=Sunday Night
TTITLE13=Looking In
TTITLE14=Take It Easy
TTITLE15=Sitting an' Thinking
TTITLE16=Leavin' Again
TTITLE17=Romanoff
EXTD=
EXTT0=
EXTT1=
EXTT2=
EXTT3=
EXTT4=
EXTT5=
EXTT6=
EXTT7=
EXTT8=
EXTT9=
EXTT10=
EXTT11=
EXTT12=
EXTT13=
EXTT14=
EXTT15=
EXTT16=
EXTT17=
PLAYORDER=
